<svg version="1.2" xmlns="http://www.w3.org/2000/svg" viewBox="0 0 32 32" width="32" height="32">
	<path fill="#3498db" d="m27.7 18.1l-4.2 1.1-3.8-2.2h3.3c0.6 0 1-0.4 1-1 0-0.6-0.4-1-1-1h-3.3l3.8-2.2 4.2 1.1q0.1 0 0.3 0c0.4 0 0.8-0.3 1-0.7 0.1-0.5-0.2-1.1-0.7-1.2l-3.7-1 1-3.7c0.1-0.5-0.2-1.1-0.7-1.2-0.5-0.1-1.1 0.2-1.2 0.7l-1.1 4.3-3.4 1.9 1.6-2.4c0.3-0.5 0.2-1.1-0.3-1.4-0.5-0.3-1.1-0.2-1.4 0.3l-2.1 3.2v-4.9l3.1-3.1c0.4-0.4 0.4-1 0-1.4-0.4-0.4-1-0.4-1.4 0l-2.7 2.7-2.7-2.7c-0.4-0.4-1-0.4-1.4 0-0.4 0.4-0.4 1 0 1.4l3.1 3.1v4.9l-2.2-3.3c-0.3-0.5-0.9-0.6-1.4-0.3-0.5 0.3-0.6 0.9-0.3 1.4l1.6 2.4-3.3-1.9-1-4.2c-0.2-0.6-0.7-0.9-1.3-0.7-0.5 0.1-0.8 0.7-0.7 1.2l1 3.7-3.7 1c-0.5 0.1-0.8 0.7-0.7 1.2 0.2 0.5 0.6 0.8 1 0.8q0.2 0 0.3 0l4.2-1.1 3.8 2.2h-3.3c-0.6 0-1 0.4-1 1 0 0.6 0.4 1 1 1h3.3l-3.8 2.2-4.2-1.1c-0.5-0.1-1.1 0.2-1.2 0.7-0.1 0.5 0.2 1.1 0.7 1.2l3.7 1-1 3.7c-0.1 0.5 0.2 1.1 0.7 1.2q0.2 0 0.3 0c0.4 0 0.8-0.3 1-0.7l1.1-4.3 3.3-1.9-1.6 2.4c-0.3 0.5-0.2 1.1 0.3 1.4 0.2 0.1 0.4 0.2 0.6 0.2 0.3 0 0.6-0.2 0.8-0.4l2.2-3.3v4.9l-3.1 3.1c-0.4 0.4-0.4 1 0 1.4 0.4 0.4 1 0.4 1.4 0l2.5-2.8 2.7 2.7c0.2 0.2 0.5 0.3 0.7 0.3 0.3 0 0.5-0.1 0.7-0.3 0.4-0.4 0.4-1 0-1.4l-3.1-3.1v-4.9l2.2 3.3c0.2 0.3 0.5 0.4 0.8 0.4 0.2 0 0.4-0.1 0.6-0.2 0.5-0.3 0.6-0.9 0.3-1.4l-1.7-2.4 3.3 1.9 1.1 4.3c0.1 0.4 0.5 0.7 1 0.7q0.2 0 0.3 0c0.5-0.1 0.9-0.7 0.7-1.2l-1-3.7 3.7-1c0.5-0.1 0.8-0.7 0.7-1.2-0.2-0.6-0.7-0.9-1.3-0.7z"/>
</svg>